<svg width="48" height="48" viewBox="0 0 48 48" fill="none" xmlns="http://www.w3.org/2000/svg">
<g clip-path="url(#clip0_563_23644)">
<path d="M24 28C27.32 28 30 25.32 30 22V10C30 6.68 27.32 4 24 4C20.68 4 18 6.68 18 10V22C18 25.32 20.68 28 24 28Z" fill="white"/>
<path d="M34 22C34 27.52 29.52 32 24 32C18.48 32 14 27.52 14 22H10C10 29.06 15.22 34.86 22 35.84V42H26V35.84C32.78 34.86 38 29.06 38 22H34Z" fill="white"/>
</g>
<defs>
<clipPath id="clip0_563_23644">
<rect width="48" height="48" fill="white"/>
</clipPath>
</defs>
</svg>
