<svg width="25" height="24" viewBox="0 0 25 24" fill="none" xmlns="http://www.w3.org/2000/svg">
<path d="M16.0156 11.0156C16.8441 11.0156 17.5156 10.3441 17.5156 9.51562C17.5156 8.6872 16.8441 8.01562 16.0156 8.01562C15.1872 8.01562 14.5156 8.6872 14.5156 9.51562C14.5156 10.3441 15.1872 11.0156 16.0156 11.0156Z" fill="#A5B9FF"/>
<path d="M9.01562 11.0156C9.84405 11.0156 10.5156 10.3441 10.5156 9.51562C10.5156 8.6872 9.84405 8.01562 9.01562 8.01562C8.1872 8.01562 7.51562 8.6872 7.51562 9.51562C7.51562 10.3441 8.1872 11.0156 9.01562 11.0156Z" fill="#A5B9FF"/>
<path d="M12.5156 18.0156C14.7956 18.0156 16.7356 16.3556 17.5156 14.0156H7.51562C8.29562 16.3556 10.2356 18.0156 12.5156 18.0156Z" fill="#A5B9FF"/>
<path d="M12.5056 2.01562C6.98562 2.01562 2.51562 6.49563 2.51562 12.0156C2.51562 17.5356 6.98562 22.0156 12.5056 22.0156C18.0356 22.0156 22.5156 17.5356 22.5156 12.0156C22.5156 6.49563 18.0356 2.01562 12.5056 2.01562ZM12.5156 20.0156C8.09562 20.0156 4.51562 16.4356 4.51562 12.0156C4.51562 7.59562 8.09562 4.01562 12.5156 4.01562C16.9356 4.01562 20.5156 7.59562 20.5156 12.0156C20.5156 16.4356 16.9356 20.0156 12.5156 20.0156Z" fill="#A5B9FF"/>
</svg>
