<svg width="24" height="24" viewBox="0 0 24 24" fill="none" xmlns="http://www.w3.org/2000/svg">
<circle cx="12" cy="12" r="12" fill="#111111" fill-opacity="0.05"/>
<g clipPath="url(#clip0_563_24283)">
<path d="M13.4 4.6C13.8 5 14 5.46666 14 6C14 6.53334 13.8 7 13.4 7.4C13 7.8 12.5333 8 12 8C11.4667 8 11 7.8 10.6 7.4C10.2 7 10 6.53334 10 6C10 5.46666 10.2 5 10.6 4.6C11 4.2 11.4667 4 12 4C12.5333 4 13 4.2 13.4 4.6ZM13.4 16.6C13.8 17 14 17.4667 14 18C14 18.5333 13.8 19 13.4 19.4C13 19.8 12.5333 20 12 20C11.4667 20 11 19.8 10.6 19.4C10.2 19 10 18.5333 10 18C10 17.4667 10.2 17 10.6 16.6C11 16.2 11.4667 16 12 16C12.5333 16 13 16.2 13.4 16.6ZM13.4 10.6C13.8 11 14 11.4667 14 12C14 12.5333 13.8 13 13.4 13.4C13 13.8 12.5333 14 12 14C11.4667 14 11 13.8 10.6 13.4C10.2 13 10 12.5333 10 12C10 11.4667 10.2 11 10.6 10.6C11 10.2 11.4667 10 12 10C12.5333 10 13 10.2 13.4 10.6Z" fill="#999999"/>
</g>
<defs>
<clipPath id="clip0_563_24283">
<rect width="4" height="16" fill="white" transform="translate(10 4)"/>
</clipPath>
</defs>
</svg>
