<svg width="103" height="76" viewBox="0 0 103 76" fill="none" xmlns="http://www.w3.org/2000/svg">
<path d="M89.105 75.5364H13.895C6.20145 75.5364 0 69.2884 0 61.6415V13.895C0 6.20144 6.24808 0 13.895 0H89.105C96.7986 0 103 6.24807 103 13.895V61.5948C103 69.2884 96.7986 75.5364 89.105 75.5364Z" fill="#FFBD3D"/>
<path d="M25.6503 12.45C24.3448 9.37262 19.9618 10.072 19.3556 13.8022C18.5163 19.0711 16.7445 27.6039 17.0709 41.2191C17.3973 54.8344 21.0342 63.7402 24.3448 64.8593C28.2615 66.1648 25.2307 61.9217 24.8577 49.8919C24.2049 29.4224 26.9559 15.5274 25.6503 12.45Z" fill="white"/>
<path d="M10.0284 29.5144C12.966 28.1156 23.8301 23.3596 32.5029 22.2406C40.3829 21.2614 40.7093 19.3496 39.7767 17.3913C38.8442 15.4329 34.4612 16.0857 29.0058 17.1581C23.4105 18.2306 11.6604 21.7743 8.20995 26.0174C5.7387 29.1414 8.02345 30.447 10.0284 29.5144Z" fill="white"/>
<path d="M33.7176 26.6269C31.0599 26.2539 30.4071 27.6061 30.1273 34.2738C29.8476 40.9415 27.8892 55.1629 33.9042 54.0438C39.1264 53.0646 42.437 43.0864 42.9033 41.5477C43.3695 40.009 42.5769 38.5169 39.8725 42.4802C37.1681 46.4902 36.1889 47.6559 36.1889 47.6559C36.1889 47.6559 35.7693 42.0139 36.3754 35.9058C36.9816 29.3313 36.2355 26.9533 33.7176 26.6269Z" fill="white"/>
<path d="M41.7363 26.9508C41.5498 30.1215 41.0369 45.6484 43.6947 50.7775C45.1401 53.5751 49.0568 52.6425 48.8237 50.7775C48.5905 48.9124 47.7979 36.3229 48.3574 28.8626C48.9169 21.4022 41.9228 24.1998 41.7363 26.9508Z" fill="white"/>
<path d="M37.6335 57.7776C43.6485 56.8917 68.6874 54.1873 88.1777 54.4204C93.6797 54.4671 93.2134 58.2439 88.7372 58.2905C85.1002 58.3371 59.1288 60.2955 41.9699 63.4195C35.5353 64.5852 35.4887 62.7668 34.9291 61.4146C33.8101 58.7568 34.8359 58.1973 37.6335 57.7776Z" fill="white"/>
<path d="M81.184 23.6871C78.5263 23.2208 77.8269 24.5264 77.314 30.961C76.8011 37.3956 74.3764 51.1973 80.3914 50.3114C85.6136 49.5187 89.2972 39.9601 89.8101 38.5146C90.323 37.0692 89.577 35.5305 86.7327 39.3073C83.8884 43.0841 82.8626 44.2032 82.8626 44.2032C82.8626 44.2032 82.6295 38.7478 83.4222 32.8261C84.3547 26.4381 83.7019 24.1534 81.184 23.6871Z" fill="white"/>
<path d="M88.7363 24.2019C88.5498 27.3726 88.0369 42.8995 90.6947 48.0286C92.1401 50.8262 96.0568 49.8937 95.8237 48.0286C95.5905 46.1635 94.7979 33.5741 95.3574 26.1137C95.9169 18.6533 88.8762 21.4043 88.7363 24.2019Z" fill="white"/>
<path d="M58.6128 35.4872C58.6128 35.4872 58.7993 31.011 59.0791 27.6538C59.3588 24.3433 55.8618 23.7837 53.577 24.8562C51.2923 25.9286 52.0383 28.633 52.0383 33.4822C52.0383 38.3315 51.1524 49.4755 55.4887 50.5013C57.7735 51.0142 58.5195 48.7294 58.5195 45.8851C58.5195 43.0409 62.6694 32.3166 66.4462 29.4257C66.4462 29.4257 67.7984 32.643 66.0732 45.8851C65.5136 50.6411 67.099 50.9209 68.218 50.5479C69.85 49.9884 72.3679 43.4605 72.6943 37.4456C73.3937 25.5556 72.1347 23.5506 67.3321 23.9236C62.5761 24.3899 58.6128 35.4872 58.6128 35.4872Z" fill="white"/>
</svg>
